<svg width="121" height="27" viewBox="0 0 121 27" fill="none" xmlns="http://www.w3.org/2000/svg">
<path d="M1.89953 4.58715V10.099C1.89953 11.0032 1.89953 12.0187 0 12.0187V13.5079V13.528V14.9799C1.89953 14.9799 1.89953 15.9949 1.89953 16.8996V22.4109C1.89953 26.6884 4.2729 26.999 8.30857 26.999V23.6722C6.40905 23.6722 5.69739 23.396 5.69739 22.3288V16.8715C5.69739 15.6114 5.78501 14.295 4.67104 13.4987C5.78501 12.7036 5.69739 11.3872 5.69739 10.126V4.66982C5.69739 3.60373 6.40964 3.32645 8.30857 3.32645V-0.000975773C4.2729 -0.00154907 1.89953 0.309033 1.89953 4.58715ZM12.5791 4.40861C11.5414 5.27433 11.0229 6.51781 11.0229 8.13789V9.59321H8.85513V12.6342H11.0229V23.6544H15.7332V12.6342H18.6514V9.59321H15.7332V8.55525C15.7332 8.02709 15.8906 7.62006 16.2053 7.33416C16.52 7.04827 16.97 6.90589 17.5535 6.90589C17.8402 6.90589 19.3046 6.91049 19.3046 6.91049V3.38156C19.3046 3.38156 16.6899 3.35343 16.3162 3.35343C15.1789 3.35343 13.6168 3.54173 12.5791 4.40861ZM21.3764 6.89786H26.0874V3.38156H21.3764V6.89786ZM21.3764 23.655H26.0874V9.59321H21.3764V23.655ZM37.7039 9.33314C36.8146 9.33314 36.0082 9.53063 35.2858 9.92445C34.5634 10.3183 33.9567 10.8671 33.4656 11.5681L33.285 9.59321H28.8797V23.6544H33.5627V13.5447C33.8035 13.2846 34.0932 13.0797 34.4311 12.9338C34.7691 12.788 35.1559 12.7128 35.5916 12.7128C36.2865 12.7128 36.8122 12.8799 37.1687 13.2128C37.5251 13.547 37.7039 14.1153 37.7039 14.9219V23.6555H42.4005V14.9351C42.4005 12.9855 41.9857 11.5646 41.1572 10.6719C40.3282 9.77921 39.1767 9.33314 37.7039 9.33314ZM56.605 16.7217C55.7205 16.0506 54.3604 15.5448 52.5264 15.2072C51.3594 15.0006 50.5828 14.7652 50.1989 14.5051C49.8145 14.2462 49.622 13.9287 49.622 13.5567C49.622 13.1663 49.7889 12.8477 50.122 12.5957C50.4552 12.3442 50.8677 12.2179 51.3588 12.2179C52.0257 12.2179 52.5097 12.3615 52.8107 12.6474C53.1117 12.9333 53.2625 13.3535 53.2625 13.9075H57.8203L57.8483 13.83C57.9043 12.5027 57.3393 11.424 56.1532 10.5875C54.9671 9.75108 53.3733 9.33257 51.3725 9.33257C49.473 9.33257 47.968 9.76428 46.8558 10.6266C45.7442 11.4888 45.1887 12.5383 45.1887 13.7766C45.1887 14.946 45.6334 15.8697 46.5227 16.5449C47.4119 17.2211 48.7321 17.7189 50.4832 18.0398C51.5948 18.2562 52.3613 18.5008 52.7827 18.7735C53.2047 19.0467 53.4151 19.3573 53.4151 19.7018C53.4151 20.1266 53.253 20.455 52.9287 20.6829C52.6045 20.9125 52.1277 21.0291 51.4977 21.0291C50.7383 21.0291 50.1518 20.8804 49.74 20.5864C49.3275 20.2925 49.1124 19.8114 49.0939 19.1443H44.8419L44.8144 19.2218C44.759 20.4182 45.3258 21.5015 46.5167 22.4712C47.707 23.442 49.3258 23.9265 51.3731 23.9265C53.3465 23.9265 54.9325 23.5172 56.1323 22.6979C57.3327 21.8793 57.9323 20.8385 57.9323 19.5726C57.9323 18.3435 57.4895 17.3928 56.605 16.7217ZM73.3717 17.7418H73.2883L70.8154 9.59435H67.8549L65.4095 17.8078H65.326L63.6726 9.59435H59.3372L62.8805 23.6555H66.8417L69.3003 16.1964H69.3837L71.8298 23.6555H75.8041L79.3338 9.59435H74.9983L73.3717 17.7418ZM87.308 9.33306C85.0753 9.32453 83.3581 9.99851 82.1589 11.3545C80.9579 12.7099 80.3583 14.458 80.3583 16.5977V17.092C80.3583 19.0496 81.0187 20.6789 82.3377 21.9786C83.6579 23.2789 85.4257 23.9282 87.64 23.9282C88.835 23.9282 89.9537 23.779 90.9962 23.4799C92.038 23.1813 92.8885 22.807 93.5454 22.3564L92.4344 19.6788C91.619 20.0003 90.9449 20.2248 90.4121 20.3551C89.8786 20.486 89.1676 20.5508 88.2783 20.5508C87.398 20.5508 86.6947 20.3189 86.1666 19.8556C85.6379 19.3906 85.3238 18.7999 85.2213 18.0811L85.2499 18.0025H93.8368V15.7009C93.8368 13.7433 93.2575 12.1927 92.1 11.0485C90.9437 9.90494 89.3452 9.33306 87.308 9.33306ZM89.2534 15.26H85.2094L85.1676 15.1957C85.2421 14.4414 85.4484 13.8392 85.7869 13.3885C86.1243 12.939 86.6321 12.7134 87.3086 12.7134C87.9755 12.7134 88.4654 12.904 88.7819 13.2852C89.0966 13.6664 89.2546 14.2123 89.2546 14.9225L89.2534 15.26ZM103.069 9.33306C100.837 9.32453 99.1206 9.99851 97.9202 11.3545C96.721 12.7099 96.1202 14.458 96.1202 16.5977V17.092C96.1202 19.0496 96.7806 20.6789 98.1008 21.9786C99.4216 23.2789 101.188 23.9282 103.402 23.9282C104.597 23.9282 105.716 23.779 106.759 23.4799C107.801 23.1813 108.651 22.807 109.308 22.3564L108.197 19.6788C107.381 20.0003 106.708 20.2248 106.175 20.3551C105.64 20.486 104.931 20.5508 104.041 20.5508C103.161 20.5508 102.458 20.3189 101.929 19.8556C101.4 19.3906 101.086 18.7999 100.984 18.0811L101.012 18.0025H109.599V15.7009C109.599 13.7433 109.02 12.1927 107.862 11.0485C106.704 9.90494 105.108 9.33306 103.069 9.33306ZM105.014 15.26H100.971L100.93 15.1957C101.004 14.4414 101.21 13.8392 101.548 13.3885C101.885 12.939 102.393 12.7134 103.069 12.7134C103.736 12.7134 104.227 12.904 104.543 13.2852C104.859 13.6664 105.016 14.2123 105.016 14.9225V15.2606H105.014V15.26ZM119.249 20.0078C118.665 20.0078 118.215 19.8654 117.901 19.5795C117.586 19.2936 117.428 18.8854 117.428 18.3573V12.6588H119.872V9.61674H117.428V3.35917H112.718V9.61674H110.549V12.6588H112.718V18.7746C112.718 20.3947 113.236 21.6382 114.273 22.5051C115.31 23.3725 116.872 23.5602 118.011 23.5602C118.385 23.5602 121 23.5321 121 23.5321V20.0032C121 20.0032 119.537 20.0078 119.249 20.0078Z" fill="white"/>
</svg>
