<svg width="46" height="46" viewBox="0 0 46 46" fill="none" xmlns="http://www.w3.org/2000/svg">
<path d="M22.9999 7.6665C14.5452 7.6665 7.6665 14.5452 7.6665 22.9999C7.6665 31.4545 14.5452 38.3332 22.9999 38.3332C31.4545 38.3332 38.3332 31.4545 38.3332 22.9999C38.3332 14.5452 31.4545 7.6665 22.9999 7.6665ZM30.8444 13.394C31.0166 13.2022 31.2599 13.0889 31.5182 13.0787C31.7409 13.0534 32.0274 13.162 32.2145 13.3398C34.2023 15.2218 35.5537 17.6177 36.1189 20.2681C36.2088 20.6911 36.0047 21.1216 35.621 21.32C34.6832 21.8048 33.5696 22.0396 32.5027 22.0396C31.112 22.0396 29.7943 21.6409 29.0306 20.8772C27.406 19.2536 28.0835 16.4563 30.8444 13.394ZM15.1554 32.7554C14.9832 32.9472 14.7399 33.0614 14.4816 33.0717C14.4704 33.0726 14.4573 33.0726 14.4441 33.0726C14.199 33.0726 13.9631 32.979 13.7853 32.8105C11.7975 30.9285 10.4461 28.5326 9.88088 25.8813C9.79104 25.4583 9.99507 25.0278 10.3788 24.8294C12.5388 23.7148 15.6197 23.9226 16.9692 25.2721C18.592 26.8959 17.9144 29.6932 15.1554 32.7554ZM16.9691 20.8773C16.2054 21.641 14.8877 22.0397 13.497 22.0397C12.4301 22.0397 11.3183 21.8048 10.3787 21.3201C9.99498 21.1217 9.79095 20.6912 9.88079 20.2682C10.4461 17.6178 11.7974 15.2219 13.7852 13.3399C13.9724 13.1621 14.2476 13.0516 14.4815 13.0788C14.7398 13.0891 14.9831 13.2023 15.1553 13.3941C17.9162 16.4563 18.5938 19.2536 16.9691 20.8773ZM27.084 35.7792C25.7569 36.2022 24.383 36.4166 22.9999 36.4166C21.6167 36.4166 20.2427 36.2023 18.9158 35.7792C18.4946 35.6445 18.2195 35.2402 18.2494 34.7994C18.489 31.3507 20.531 28.7499 22.9999 28.7499C25.4687 28.7499 27.5107 31.3507 27.7504 34.7993C27.7803 35.2402 27.5052 35.6445 27.084 35.7792ZM19.1665 22.9999C19.1665 20.8858 20.8867 19.1665 22.9999 19.1665C25.1131 19.1665 26.8332 20.8857 26.8332 22.9999C26.8332 25.1141 25.1131 26.8332 22.9999 26.8332C20.8867 26.8332 19.1665 25.114 19.1665 22.9999ZM27.7504 11.2762C27.5107 14.7239 25.4687 17.3247 22.9999 17.3247C20.531 17.3247 18.489 14.7239 18.2494 11.2762C18.2195 10.8354 18.4927 10.4311 18.9139 10.2972C21.568 9.44927 24.4318 9.44927 27.0859 10.2972C27.5071 10.4311 27.7803 10.8354 27.7504 11.2762ZM36.1189 25.7289C35.5536 28.3802 34.2023 30.776 32.2145 32.6581C32.0367 32.8265 31.8009 32.9201 31.5557 32.9201C31.5426 32.9201 31.5295 32.9201 31.5182 32.9192C31.2599 32.9089 31.0166 32.7957 30.8444 32.6039C28.0836 29.5417 27.406 26.7435 29.0306 25.1197C30.3802 23.7693 33.4592 23.5643 35.621 24.6771C36.0047 24.8754 36.2088 25.3059 36.1189 25.7289Z" fill="#1E1B1B"/>
<path d="M23 0C10.317 0 0 10.318 0 23C0 35.682 10.317 46 23 46C35.683 46 46 35.682 46 23C46 10.318 35.683 0 23 0ZM23 40.25C13.4878 40.25 5.75 32.5113 5.75 23C5.75 13.4887 13.4878 5.75 23 5.75C32.5122 5.75 40.25 13.4887 40.25 23C40.25 32.5113 32.5122 40.25 23 40.25Z" fill="#1E1B1B"/>
</svg>
