<svg width="278" height="103" viewBox="0 0 278 103" fill="none" xmlns="http://www.w3.org/2000/svg">
<rect width="277.302" height="102.484" rx="51.2421" fill="url(#paint0_linear_935_17)"/>
<path d="M111.59 58.9635L106.766 54.1635L108.374 52.5555L113.174 57.3555L111.59 58.9635ZM105.254 58.9755C103.526 58.9755 102.054 58.5995 100.838 57.8475C99.6216 57.0875 98.6896 56.0315 98.0416 54.6795C97.4016 53.3275 97.0816 51.7595 97.0816 49.9755C97.0816 48.1915 97.4016 46.6235 98.0416 45.2715C98.6896 43.9195 99.6216 42.8675 100.838 42.1155C102.054 41.3555 103.526 40.9755 105.254 40.9755C106.974 40.9755 108.442 41.3555 109.658 42.1155C110.882 42.8675 111.814 43.9195 112.454 45.2715C113.094 46.6235 113.414 48.1915 113.414 49.9755C113.414 51.7595 113.094 53.3275 112.454 54.6795C111.814 56.0315 110.882 57.0875 109.658 57.8475C108.442 58.5995 106.974 58.9755 105.254 58.9755ZM105.254 56.5875C106.478 56.6035 107.494 56.3355 108.302 55.7835C109.118 55.2235 109.73 54.4475 110.138 53.4555C110.546 52.4555 110.75 51.2955 110.75 49.9755C110.75 48.6555 110.546 47.5035 110.138 46.5195C109.73 45.5275 109.118 44.7555 108.302 44.2035C107.494 43.6515 106.478 43.3715 105.254 43.3635C104.03 43.3475 103.01 43.6155 102.194 44.1675C101.386 44.7195 100.778 45.4955 100.37 46.4955C99.9616 47.4955 99.7536 48.6555 99.7456 49.9755C99.7376 51.2955 99.9376 52.4515 100.346 53.4435C100.754 54.4275 101.366 55.1955 102.182 55.7475C103.006 56.2995 104.03 56.5795 105.254 56.5875ZM119.971 58.9635C119.075 58.9635 118.323 58.8195 117.715 58.5315C117.107 58.2435 116.611 57.8675 116.227 57.4035C115.851 56.9315 115.563 56.4195 115.363 55.8675C115.163 55.3155 115.027 54.7755 114.955 54.2475C114.883 53.7195 114.847 53.2555 114.847 52.8555V45.6555H117.391V52.0275C117.391 52.5315 117.431 53.0515 117.511 53.5875C117.599 54.1155 117.759 54.6075 117.991 55.0635C118.231 55.5195 118.563 55.8875 118.987 56.1675C119.419 56.4475 119.979 56.5875 120.667 56.5875C121.115 56.5875 121.539 56.5155 121.939 56.3715C122.339 56.2195 122.687 55.9795 122.983 55.6515C123.287 55.3235 123.523 54.8915 123.691 54.3555C123.867 53.8195 123.955 53.1675 123.955 52.3995L125.515 52.9875C125.515 54.1635 125.295 55.2035 124.855 56.1075C124.415 57.0035 123.783 57.7035 122.959 58.2075C122.135 58.7115 121.139 58.9635 119.971 58.9635ZM124.255 58.6155V54.8715H123.955V45.6555H126.487V58.6155H124.255ZM129.373 43.5315V41.0955H131.881V43.5315H129.373ZM129.373 58.6155V45.6555H131.881V58.6155H129.373ZM140.308 58.9755C138.98 58.9755 137.852 58.6795 136.924 58.0875C135.996 57.4955 135.284 56.6835 134.788 55.6515C134.3 54.6195 134.052 53.4475 134.044 52.1355C134.052 50.7995 134.308 49.6195 134.812 48.5955C135.316 47.5635 136.036 46.7555 136.972 46.1715C137.908 45.5875 139.032 45.2955 140.344 45.2955C141.76 45.2955 142.968 45.6475 143.968 46.3515C144.976 47.0555 145.64 48.0195 145.96 49.2435L143.464 49.9635C143.216 49.2355 142.808 48.6715 142.24 48.2715C141.68 47.8635 141.036 47.6595 140.308 47.6595C139.484 47.6595 138.808 47.8555 138.28 48.2475C137.752 48.6315 137.36 49.1595 137.104 49.8315C136.848 50.5035 136.716 51.2715 136.708 52.1355C136.716 53.4715 137.02 54.5515 137.62 55.3755C138.228 56.1995 139.124 56.6115 140.308 56.6115C141.116 56.6115 141.768 56.4275 142.264 56.0595C142.768 55.6835 143.152 55.1475 143.416 54.4515L145.96 55.0515C145.536 56.3155 144.836 57.2875 143.86 57.9675C142.884 58.6395 141.7 58.9755 140.308 58.9755ZM147.673 58.6155L147.685 41.3355H150.229V51.8955L155.317 45.6555H158.509L153.133 52.1355L159.061 58.6155H155.653L150.229 52.3755V58.6155H147.673ZM168.592 58.9635C167.016 58.9635 165.732 58.6155 164.74 57.9195C163.748 57.2235 163.14 56.2435 162.916 54.9795L165.484 54.5835C165.644 55.2555 166.012 55.7875 166.588 56.1795C167.172 56.5635 167.896 56.7555 168.76 56.7555C169.544 56.7555 170.156 56.5955 170.596 56.2755C171.044 55.9555 171.268 55.5155 171.268 54.9555C171.268 54.6275 171.188 54.3635 171.028 54.1635C170.876 53.9555 170.552 53.7595 170.056 53.5755C169.56 53.3915 168.804 53.1635 167.788 52.8915C166.676 52.6035 165.792 52.2955 165.136 51.9675C164.488 51.6315 164.024 51.2435 163.744 50.8035C163.472 50.3555 163.336 49.8155 163.336 49.1835C163.336 48.3995 163.544 47.7155 163.96 47.1315C164.376 46.5475 164.96 46.0955 165.712 45.7755C166.472 45.4555 167.36 45.2955 168.376 45.2955C169.368 45.2955 170.252 45.4515 171.028 45.7635C171.804 46.0755 172.432 46.5195 172.912 47.0955C173.392 47.6635 173.68 48.3315 173.776 49.0995L171.208 49.5675C171.12 48.9435 170.828 48.4515 170.332 48.0915C169.836 47.7315 169.192 47.5355 168.4 47.5035C167.64 47.4715 167.024 47.5995 166.552 47.8875C166.08 48.1675 165.844 48.5555 165.844 49.0515C165.844 49.3395 165.932 49.5835 166.108 49.7835C166.292 49.9835 166.644 50.1755 167.164 50.3595C167.684 50.5435 168.452 50.7635 169.468 51.0195C170.556 51.2995 171.42 51.6115 172.06 51.9555C172.7 52.2915 173.156 52.6955 173.428 53.1675C173.708 53.6315 173.848 54.1955 173.848 54.8595C173.848 56.1395 173.38 57.1435 172.444 57.8715C171.516 58.5995 170.232 58.9635 168.592 58.9635ZM181.531 58.9755C180.243 58.9755 179.111 58.6955 178.135 58.1355C177.167 57.5675 176.411 56.7795 175.867 55.7715C175.331 54.7555 175.063 53.5795 175.063 52.2435C175.063 50.8275 175.327 49.5995 175.855 48.5595C176.391 47.5195 177.135 46.7155 178.087 46.1475C179.039 45.5795 180.147 45.2955 181.411 45.2955C182.731 45.2955 183.855 45.6035 184.783 46.2195C185.711 46.8275 186.403 47.6955 186.859 48.8235C187.323 49.9515 187.507 51.2915 187.411 52.8435H184.903V51.9315C184.887 50.4275 184.599 49.3155 184.039 48.5955C183.487 47.8755 182.643 47.5155 181.507 47.5155C180.251 47.5155 179.307 47.9115 178.675 48.7035C178.043 49.4955 177.727 50.6395 177.727 52.1355C177.727 53.5595 178.043 54.6635 178.675 55.4475C179.307 56.2235 180.219 56.6115 181.411 56.6115C182.195 56.6115 182.871 56.4355 183.439 56.0835C184.015 55.7235 184.463 55.2115 184.783 54.5475L187.243 55.3275C186.739 56.4875 185.975 57.3875 184.951 58.0275C183.927 58.6595 182.787 58.9755 181.531 58.9755ZM176.911 52.8435V50.8875H186.163V52.8435H176.911ZM189.383 58.6155V45.6555H191.615V48.7995L191.303 48.3915C191.463 47.9755 191.671 47.5955 191.927 47.2515C192.183 46.8995 192.479 46.6115 192.815 46.3875C193.143 46.1475 193.507 45.9635 193.907 45.8355C194.315 45.6995 194.731 45.6195 195.155 45.5955C195.579 45.5635 195.987 45.5835 196.379 45.6555V48.0075C195.955 47.8955 195.483 47.8635 194.963 47.9115C194.451 47.9595 193.979 48.1235 193.547 48.4035C193.139 48.6675 192.815 48.9875 192.575 49.3635C192.343 49.7395 192.175 50.1595 192.071 50.6235C191.967 51.0795 191.915 51.5635 191.915 52.0755V58.6155H189.383ZM201.448 58.6155L196.744 45.6555H199.276L202.72 55.4715L206.164 45.6555H208.696L203.992 58.6155H201.448ZM210.378 43.5315V41.0955H212.886V43.5315H210.378ZM210.378 58.6155V45.6555H212.886V58.6155H210.378ZM221.314 58.9755C219.986 58.9755 218.858 58.6795 217.93 58.0875C217.002 57.4955 216.29 56.6835 215.794 55.6515C215.306 54.6195 215.058 53.4475 215.05 52.1355C215.058 50.7995 215.314 49.6195 215.818 48.5955C216.322 47.5635 217.042 46.7555 217.978 46.1715C218.914 45.5875 220.038 45.2955 221.35 45.2955C222.766 45.2955 223.974 45.6475 224.974 46.3515C225.982 47.0555 226.646 48.0195 226.966 49.2435L224.47 49.9635C224.222 49.2355 223.814 48.6715 223.246 48.2715C222.686 47.8635 222.042 47.6595 221.314 47.6595C220.49 47.6595 219.814 47.8555 219.286 48.2475C218.758 48.6315 218.366 49.1595 218.11 49.8315C217.854 50.5035 217.722 51.2715 217.714 52.1355C217.722 53.4715 218.026 54.5515 218.626 55.3755C219.234 56.1995 220.13 56.6115 221.314 56.6115C222.122 56.6115 222.774 56.4275 223.27 56.0595C223.774 55.6835 224.158 55.1475 224.422 54.4515L226.966 55.0515C226.542 56.3155 225.842 57.2875 224.866 57.9675C223.89 58.6395 222.706 58.9755 221.314 58.9755ZM234.087 58.9755C232.799 58.9755 231.667 58.6955 230.691 58.1355C229.723 57.5675 228.967 56.7795 228.423 55.7715C227.887 54.7555 227.619 53.5795 227.619 52.2435C227.619 50.8275 227.883 49.5995 228.411 48.5595C228.947 47.5195 229.691 46.7155 230.643 46.1475C231.595 45.5795 232.703 45.2955 233.967 45.2955C235.287 45.2955 236.411 45.6035 237.339 46.2195C238.267 46.8275 238.959 47.6955 239.415 48.8235C239.879 49.9515 240.063 51.2915 239.967 52.8435H237.459V51.9315C237.443 50.4275 237.155 49.3155 236.595 48.5955C236.043 47.8755 235.199 47.5155 234.063 47.5155C232.807 47.5155 231.863 47.9115 231.231 48.7035C230.599 49.4955 230.283 50.6395 230.283 52.1355C230.283 53.5595 230.599 54.6635 231.231 55.4475C231.863 56.2235 232.775 56.6115 233.967 56.6115C234.751 56.6115 235.427 56.4355 235.995 56.0835C236.571 55.7235 237.019 55.2115 237.339 54.5475L239.799 55.3275C239.295 56.4875 238.531 57.3875 237.507 58.0275C236.483 58.6595 235.343 58.9755 234.087 58.9755ZM229.467 52.8435V50.8875H238.719V52.8435H229.467Z" fill="#1E1B1B"/>
<ellipse cx="53.651" cy="50.6218" rx="34.2953" ry="35.1661" fill="#5CBA99"/>
<g filter="url(#filter0_d_935_17)">
<path d="M69.6547 58.5649V54.3169C69.6547 53.9809 69.6254 53.6369 69.5667 53.2849C69.5134 52.9275 69.4067 52.5969 69.2467 52.2929C69.092 51.9889 68.8707 51.7435 68.5827 51.5569C68.3 51.3702 67.9294 51.2769 67.4707 51.2769C67.172 51.2769 66.8894 51.3275 66.6227 51.4289C66.356 51.5249 66.1214 51.6822 65.9187 51.9009C65.7214 52.1195 65.564 52.4075 65.4467 52.7649C65.3347 53.1222 65.2787 53.5569 65.2787 54.0689L64.2387 53.6769C64.2387 52.8929 64.3854 52.2022 64.6787 51.6049C64.972 51.0022 65.3934 50.5329 65.9427 50.1969C66.492 49.8609 67.156 49.6929 67.9347 49.6929C68.532 49.6929 69.0334 49.7889 69.4387 49.9809C69.844 50.1729 70.172 50.4262 70.4227 50.7409C70.6787 51.0502 70.8734 51.3889 71.0067 51.7569C71.14 52.1249 71.2307 52.4849 71.2787 52.8369C71.3267 53.1889 71.3507 53.4982 71.3507 53.7649V58.5649H69.6547ZM63.5827 58.5649V47.0449H65.0787V53.2609H65.2787V58.5649H63.5827ZM73.4345 58.5649V49.9249H74.9225V52.0209L74.7145 51.7489C74.8211 51.4715 74.9598 51.2182 75.1305 50.9889C75.3011 50.7542 75.4985 50.5622 75.7225 50.4129C75.9411 50.2529 76.1838 50.1302 76.4505 50.0449C76.7225 49.9542 76.9998 49.9009 77.2825 49.8849C77.5651 49.8635 77.8371 49.8769 78.0985 49.9249V51.4929C77.8158 51.4182 77.5011 51.3969 77.1545 51.4289C76.8131 51.4609 76.4985 51.5702 76.2105 51.7569C75.9385 51.9329 75.7225 52.1462 75.5625 52.3969C75.4078 52.6475 75.2958 52.9275 75.2265 53.2369C75.1571 53.5409 75.1225 53.8635 75.1225 54.2049V58.5649H73.4345Z" fill="white"/>
</g>
<g filter="url(#filter1_d_935_17)">
<path d="M33.2942 59.5244L33.3062 57.2924L40.8302 50.5484C41.4382 50.0124 41.8502 49.5004 42.0662 49.0124C42.2902 48.5244 42.4022 48.0364 42.4022 47.5484C42.4022 46.9324 42.2662 46.3804 41.9942 45.8924C41.7222 45.3964 41.3462 45.0044 40.8662 44.7164C40.3862 44.4284 39.8342 44.2844 39.2102 44.2844C38.5702 44.2844 37.9982 44.4364 37.4942 44.7404C36.9982 45.0364 36.6102 45.4324 36.3302 45.9284C36.0502 46.4244 35.9142 46.9604 35.9222 47.5364H33.3542C33.3542 46.4164 33.6062 45.4364 34.1102 44.5964C34.6222 43.7484 35.3222 43.0884 36.2102 42.6164C37.0982 42.1364 38.1142 41.8964 39.2582 41.8964C40.3462 41.8964 41.3222 42.1444 42.1862 42.6404C43.0502 43.1284 43.7302 43.8004 44.2262 44.6564C44.7302 45.5124 44.9822 46.4884 44.9822 47.5844C44.9822 48.3764 44.8782 49.0484 44.6702 49.6004C44.4622 50.1524 44.1502 50.6644 43.7342 51.1364C43.3182 51.6084 42.7982 52.1204 42.1742 52.6724L36.3662 57.8564L36.0902 57.1364H44.9822V59.5244H33.2942ZM53.9914 59.5364V56.5244H46.1914V54.1484L51.8074 42.2564H54.6754L49.0594 54.1484H53.9914V49.4684H56.5354V54.1484H58.2514V56.5244H56.5354V59.5364H53.9914Z" fill="white"/>
</g>
<defs>
<filter id="filter0_d_935_17" x="59.5828" y="47.0449" width="22.5156" height="19.52" filterUnits="userSpaceOnUse" color-interpolation-filters="sRGB">
<feFlood flood-opacity="0" result="BackgroundImageFix"/>
<feColorMatrix in="SourceAlpha" type="matrix" values="0 0 0 0 0 0 0 0 0 0 0 0 0 0 0 0 0 0 127 0" result="hardAlpha"/>
<feOffset dy="4"/>
<feGaussianBlur stdDeviation="2"/>
<feComposite in2="hardAlpha" operator="out"/>
<feColorMatrix type="matrix" values="0 0 0 0 0 0 0 0 0 0 0 0 0 0 0 0 0 0 0.25 0"/>
<feBlend mode="normal" in2="BackgroundImageFix" result="effect1_dropShadow_935_17"/>
<feBlend mode="normal" in="SourceGraphic" in2="effect1_dropShadow_935_17" result="shape"/>
</filter>
<filter id="filter1_d_935_17" x="29.2942" y="41.8964" width="32.9573" height="25.64" filterUnits="userSpaceOnUse" color-interpolation-filters="sRGB">
<feFlood flood-opacity="0" result="BackgroundImageFix"/>
<feColorMatrix in="SourceAlpha" type="matrix" values="0 0 0 0 0 0 0 0 0 0 0 0 0 0 0 0 0 0 127 0" result="hardAlpha"/>
<feOffset dy="4"/>
<feGaussianBlur stdDeviation="2"/>
<feComposite in2="hardAlpha" operator="out"/>
<feColorMatrix type="matrix" values="0 0 0 0 0 0 0 0 0 0 0 0 0 0 0 0 0 0 0.25 0"/>
<feBlend mode="normal" in2="BackgroundImageFix" result="effect1_dropShadow_935_17"/>
<feBlend mode="normal" in="SourceGraphic" in2="effect1_dropShadow_935_17" result="shape"/>
</filter>
<linearGradient id="paint0_linear_935_17" x1="115.134" y1="-111.527" x2="223.325" y2="223.509" gradientUnits="userSpaceOnUse">
<stop stop-color="white"/>
<stop offset="1" stop-color="white"/>
</linearGradient>
</defs>
</svg>
