<svg width="32" height="32" viewBox="0 0 32 32" fill="none" xmlns="http://www.w3.org/2000/svg">
<path d="M26.562 4.89324C23.6854 1.95764 19.8605 0.341003 15.7923 0.341003C11.7241 0.341003 7.89914 1.95764 5.02255 4.89324C2.14577 7.82864 0.561523 11.7318 0.561523 15.8832C0.561523 20.0345 2.14577 23.9377 5.02255 26.8731C7.89914 29.8087 11.7241 31.4254 15.7923 31.4254C19.8605 31.4254 23.6854 29.8087 26.562 26.8731C29.4388 23.9377 31.0231 20.0345 31.0231 15.8832C31.0231 11.7318 29.4388 7.82864 26.562 4.89324ZM15.7923 28.9969C8.70642 28.9969 2.94133 23.1139 2.94133 15.8832C2.94133 8.65243 8.70642 2.76947 15.7923 2.76947C22.8782 2.76947 28.6433 8.65243 28.6433 15.8832C28.6433 23.1139 22.8782 28.9969 15.7923 28.9969ZM18.0732 16.5766L22.4026 20.972L20.7241 22.6939L16.3428 18.2454C16.166 18.2885 15.9819 18.3116 15.7923 18.3116C14.478 18.3116 13.4125 17.2243 13.4125 15.8832C13.4125 15.0097 13.8646 14.2442 14.5429 13.8163V5.25865H15.7328H16.9227V13.7458C17.6666 14.1565 18.1721 14.9594 18.1721 15.8832C18.1721 16.1241 18.1371 16.3567 18.0732 16.5766Z" fill="#E2E6E9"/>
</svg>
